<svg xmlns="http://www.w3.org/2000/svg" viewBox="0 0 64 64" role="img" aria-labelledby="title desc">
  <title id="title">Cyber Bit Byte</title>
  <desc id="desc">Cyber Bit Byte company logo</desc>
  <defs>
    <linearGradient id="bg" x1="0%" y1="0%" x2="100%" y2="100%">
      <stop offset="0%" stop-color="#0f172a" />
      <stop offset="100%" stop-color="#111827" />
    </linearGradient>
    <linearGradient id="accent" x1="0%" y1="0%" x2="100%" y2="100%">
      <stop offset="0%" stop-color="#22d3ee" />
      <stop offset="100%" stop-color="#2563eb" />
    </linearGradient>
  </defs>
  <rect width="64" height="64" rx="14" fill="url(#bg)" />
  <rect x="4" y="4" width="56" height="56" rx="10" fill="none" stroke="url(#accent)" stroke-width="2" />
  <path d="M18 20h10c4.6 0 8 2.7 8 7 0 2.2-1.1 4.1-3 5.2 2.4 1 4 3.2 4 6.1 0 4.8-3.8 7.7-9.3 7.7H18V20zm8.8 10.3c2.2 0 3.5-1 3.5-2.8s-1.3-2.8-3.5-2.8h-2.7v5.6h2.7zm.7 10.8c2.5 0 4-1.1 4-3.1 0-2-1.5-3.1-4-3.1h-3.4v6.2h3.4z" fill="#f8fafc" />
  <path d="M41 22h6l-4.8 8.3L47 42h-6l-1.7-5.4L37.5 42h-6l5.1-11.7L32 22h6l1.5 4.8L41 22z" fill="url(#accent)" />
</svg>